<svg width="16" height="16" viewBox="0 0 16 16" fill="none" xmlns="http://www.w3.org/2000/svg">
<path fill-rule="evenodd" clip-rule="evenodd" d="M6.75 2C4.12665 2 2 4.12665 2 6.75C2 9.37335 4.12665 11.5 6.75 11.5C7.79763 11.5 8.76604 11.1608 9.55143 10.5863C9.58054 10.6323 9.61514 10.6758 9.65522 10.7159L12.0435 13.1041C12.3363 13.397 12.8112 13.397 13.1041 13.1041C13.397 12.8112 13.397 12.3363 13.1041 12.0434L10.7159 9.65522C10.6758 9.61514 10.6323 9.58054 10.5863 9.55143C11.1608 8.76604 11.5 7.79763 11.5 6.75C11.5 4.12665 9.37335 2 6.75 2ZM3.5 6.75C3.5 4.95507 4.95507 3.5 6.75 3.5C8.54493 3.5 10 4.95507 10 6.75C10 8.54493 8.54493 10 6.75 10C4.95507 10 3.5 8.54493 3.5 6.75Z" fill="white"/>
</svg>
